<mxfile host="Electron" agent="Mozilla/5.0 (Windows NT 10.0; Win64; x64) AppleWebKit/537.36 (KHTML, like Gecko) draw.io/28.0.6 Chrome/138.0.7204.100 Electron/37.2.3 Safari/537.36" version="28.0.6">
  <diagram name="Page-1" id="ZSprllLrDT1O5TbdRlPb">
    <mxGraphModel dx="692" dy="595" grid="1" gridSize="10" guides="1" tooltips="1" connect="1" arrows="1" fold="1" page="1" pageScale="1" pageWidth="850" pageHeight="1100" math="0" shadow="0">
      <root>
        <mxCell id="0" />
        <mxCell id="1" parent="0" />
        <mxCell id="lIyiSiCn68W-rSom8CYu-3" value="" style="edgeStyle=orthogonalEdgeStyle;rounded=0;orthogonalLoop=1;jettySize=auto;html=1;" parent="1" source="lIyiSiCn68W-rSom8CYu-1" target="lIyiSiCn68W-rSom8CYu-2" edge="1">
          <mxGeometry relative="1" as="geometry" />
        </mxCell>
        <mxCell id="lIyiSiCn68W-rSom8CYu-1" value="Start" style="ellipse;whiteSpace=wrap;html=1;fillColor=#60a917;fontColor=#ffffff;strokeColor=#2D7600;" parent="1" vertex="1">
          <mxGeometry x="305" y="20" width="120" height="80" as="geometry" />
        </mxCell>
        <mxCell id="lIyiSiCn68W-rSom8CYu-5" value="" style="edgeStyle=orthogonalEdgeStyle;rounded=0;orthogonalLoop=1;jettySize=auto;html=1;" parent="1" source="lIyiSiCn68W-rSom8CYu-2" target="lIyiSiCn68W-rSom8CYu-4" edge="1">
          <mxGeometry relative="1" as="geometry" />
        </mxCell>
        <mxCell id="lIyiSiCn68W-rSom8CYu-2" value="Check current time" style="whiteSpace=wrap;html=1;" parent="1" vertex="1">
          <mxGeometry x="290" y="130" width="150" height="40" as="geometry" />
        </mxCell>
        <mxCell id="lIyiSiCn68W-rSom8CYu-7" value="Yes" style="edgeStyle=orthogonalEdgeStyle;rounded=0;orthogonalLoop=1;jettySize=auto;html=1;" parent="1" source="lIyiSiCn68W-rSom8CYu-4" edge="1">
          <mxGeometry relative="1" as="geometry">
            <mxPoint x="450" y="360" as="targetPoint" />
            <Array as="points">
              <mxPoint x="510" y="250" />
              <mxPoint x="510" y="360" />
            </Array>
          </mxGeometry>
        </mxCell>
        <mxCell id="lIyiSiCn68W-rSom8CYu-8" value="No" style="edgeStyle=orthogonalEdgeStyle;rounded=0;orthogonalLoop=1;jettySize=auto;html=1;entryX=0;entryY=0.25;entryDx=0;entryDy=0;" parent="1" source="lIyiSiCn68W-rSom8CYu-4" target="lIyiSiCn68W-rSom8CYu-2" edge="1">
          <mxGeometry relative="1" as="geometry">
            <mxPoint x="220" y="140" as="targetPoint" />
            <Array as="points">
              <mxPoint x="250" y="250" />
              <mxPoint x="250" y="140" />
            </Array>
          </mxGeometry>
        </mxCell>
        <mxCell id="lIyiSiCn68W-rSom8CYu-9" style="edgeStyle=orthogonalEdgeStyle;rounded=0;orthogonalLoop=1;jettySize=auto;html=1;" parent="1" source="lIyiSiCn68W-rSom8CYu-4" edge="1">
          <mxGeometry relative="1" as="geometry">
            <mxPoint x="365" y="340" as="targetPoint" />
          </mxGeometry>
        </mxCell>
        <mxCell id="lIyiSiCn68W-rSom8CYu-4" value="Is it 8:AM or 6:PM" style="rhombus;whiteSpace=wrap;html=1;fillColor=#a20025;fontColor=#ffffff;strokeColor=#6F0000;" parent="1" vertex="1">
          <mxGeometry x="290" y="200" width="150" height="100" as="geometry" />
        </mxCell>
        <mxCell id="lIyiSiCn68W-rSom8CYu-13" value="" style="edgeStyle=orthogonalEdgeStyle;rounded=0;orthogonalLoop=1;jettySize=auto;html=1;" parent="1" source="lIyiSiCn68W-rSom8CYu-10" target="lIyiSiCn68W-rSom8CYu-12" edge="1">
          <mxGeometry relative="1" as="geometry" />
        </mxCell>
        <mxCell id="lIyiSiCn68W-rSom8CYu-10" value="Dispense food" style="rounded=0;whiteSpace=wrap;html=1;" parent="1" vertex="1">
          <mxGeometry x="290" y="340" width="160" height="40" as="geometry" />
        </mxCell>
        <mxCell id="lIyiSiCn68W-rSom8CYu-15" value="" style="edgeStyle=orthogonalEdgeStyle;rounded=0;orthogonalLoop=1;jettySize=auto;html=1;" parent="1" source="lIyiSiCn68W-rSom8CYu-12" target="lIyiSiCn68W-rSom8CYu-14" edge="1">
          <mxGeometry relative="1" as="geometry" />
        </mxCell>
        <mxCell id="lIyiSiCn68W-rSom8CYu-12" value="Start 10 mins timer" style="whiteSpace=wrap;html=1;rounded=0;" parent="1" vertex="1">
          <mxGeometry x="290" y="420" width="160" height="40" as="geometry" />
        </mxCell>
        <mxCell id="lIyiSiCn68W-rSom8CYu-17" value="" style="edgeStyle=orthogonalEdgeStyle;rounded=0;orthogonalLoop=1;jettySize=auto;html=1;" parent="1" source="lIyiSiCn68W-rSom8CYu-14" edge="1">
          <mxGeometry relative="1" as="geometry">
            <mxPoint x="370" y="590" as="targetPoint" />
          </mxGeometry>
        </mxCell>
        <mxCell id="lIyiSiCn68W-rSom8CYu-14" value="Check bowl weight" style="whiteSpace=wrap;html=1;rounded=0;" parent="1" vertex="1">
          <mxGeometry x="290" y="490" width="160" height="40" as="geometry" />
        </mxCell>
        <mxCell id="lIyiSiCn68W-rSom8CYu-22" value="" style="edgeStyle=orthogonalEdgeStyle;rounded=0;orthogonalLoop=1;jettySize=auto;html=1;" parent="1" source="lIyiSiCn68W-rSom8CYu-18" target="lIyiSiCn68W-rSom8CYu-21" edge="1">
          <mxGeometry relative="1" as="geometry" />
        </mxCell>
        <mxCell id="lIyiSiCn68W-rSom8CYu-25" value="NO" style="edgeStyle=orthogonalEdgeStyle;rounded=0;orthogonalLoop=1;jettySize=auto;html=1;entryX=0;entryY=0.25;entryDx=0;entryDy=0;" parent="1" target="lIyiSiCn68W-rSom8CYu-21" edge="1">
          <mxGeometry relative="1" as="geometry">
            <mxPoint x="215" y="760" as="targetPoint" />
            <mxPoint x="305" y="640" as="sourcePoint" />
            <Array as="points">
              <mxPoint x="260" y="640" />
              <mxPoint x="260" y="753" />
            </Array>
          </mxGeometry>
        </mxCell>
        <mxCell id="lIyiSiCn68W-rSom8CYu-26" value="Yes" style="edgeStyle=orthogonalEdgeStyle;rounded=0;orthogonalLoop=1;jettySize=auto;html=1;entryX=1;entryY=0.5;entryDx=0;entryDy=0;" parent="1" target="lIyiSiCn68W-rSom8CYu-27" edge="1">
          <mxGeometry relative="1" as="geometry">
            <mxPoint x="530" y="870" as="targetPoint" />
            <mxPoint x="440" y="640" as="sourcePoint" />
            <Array as="points">
              <mxPoint x="520" y="640" />
              <mxPoint x="520" y="865" />
            </Array>
          </mxGeometry>
        </mxCell>
        <mxCell id="lIyiSiCn68W-rSom8CYu-18" value="Has the bowl weight changed?" style="rhombus;whiteSpace=wrap;html=1;fillColor=#a20025;fontColor=#ffffff;strokeColor=#6F0000;" parent="1" vertex="1">
          <mxGeometry x="297.5" y="590" width="145" height="100" as="geometry" />
        </mxCell>
        <mxCell id="lIyiSiCn68W-rSom8CYu-28" value="" style="edgeStyle=orthogonalEdgeStyle;rounded=0;orthogonalLoop=1;jettySize=auto;html=1;" parent="1" source="lIyiSiCn68W-rSom8CYu-21" target="lIyiSiCn68W-rSom8CYu-27" edge="1">
          <mxGeometry relative="1" as="geometry" />
        </mxCell>
        <mxCell id="lIyiSiCn68W-rSom8CYu-21" value="Send alert to the user" style="whiteSpace=wrap;html=1;" parent="1" vertex="1">
          <mxGeometry x="280" y="740" width="180" height="50" as="geometry" />
        </mxCell>
        <mxCell id="lIyiSiCn68W-rSom8CYu-30" style="edgeStyle=orthogonalEdgeStyle;rounded=0;orthogonalLoop=1;jettySize=auto;html=1;entryX=0.5;entryY=0;entryDx=0;entryDy=0;" parent="1" source="lIyiSiCn68W-rSom8CYu-27" target="lIyiSiCn68W-rSom8CYu-29" edge="1">
          <mxGeometry relative="1" as="geometry" />
        </mxCell>
        <mxCell id="lIyiSiCn68W-rSom8CYu-27" value="Feeding success" style="whiteSpace=wrap;html=1;" parent="1" vertex="1">
          <mxGeometry x="280" y="840" width="180" height="50" as="geometry" />
        </mxCell>
        <mxCell id="lIyiSiCn68W-rSom8CYu-29" value="End" style="ellipse;whiteSpace=wrap;html=1;fillColor=#60a917;fontColor=#ffffff;strokeColor=#2D7600;" parent="1" vertex="1">
          <mxGeometry x="310" y="940" width="120" height="50" as="geometry" />
        </mxCell>
        <mxCell id="lIyiSiCn68W-rSom8CYu-31" style="edgeStyle=orthogonalEdgeStyle;rounded=0;orthogonalLoop=1;jettySize=auto;html=1;exitX=0.5;exitY=1;exitDx=0;exitDy=0;" parent="1" source="lIyiSiCn68W-rSom8CYu-29" target="lIyiSiCn68W-rSom8CYu-29" edge="1">
          <mxGeometry relative="1" as="geometry" />
        </mxCell>
      </root>
    </mxGraphModel>
  </diagram>
</mxfile>
